#!OML:ASF F:\VICON\USERDATA\INSTALL\rory3\rory3.ASF
:FULLY-SPECIFIED
:DEGREES
140
root -0.879483 17.1277 20.6511 -176.639 4.50309 -180.519
lowerback 30.6633 -2.75529 1.25232
upperback 7.03139 0.239766 8.69063
thorax -8.44925 1.07787 8.36337
lowerneck -11.4117 1.17817 -0.751889
upperneck 5.17183 3.10905 -11.4399
head 3.60602 1.16837 -3.1671
rclavicle 2.8625e-014 4.77083e-015
rhumerus -56.9764 -38.6303 -41.8516
rradius 81.4156
rwrist -60.543
rhand -19.0511 -1.65139
rfingers 7.12502
rthumb 7.25579 -31.507
lclavicle 2.8625e-014 4.77083e-015
lhumerus -44.6439 6.54973 82.7029
lradius 40.5314
lwrist 10.9713
lhand -11.5653 50.1427
lfingers 7.12502
lthumb 14.4759 79.6178
rfemur -21.5828 -2.99663 24.5145
rtibia 54.0162
rfoot -29.9217 -18.4868
rtoes 1.95239
lfemur -43.6877 3.18025 -23.7435
ltibia 54.344
lfoot -12.1717 -0.393689
ltoes -17.8071
141
root -0.884036 17.1416 20.4271 -176.655 4.99753 -180.385
lowerback 30.3251 -2.76632 1.24237
upperback 7.22481 0.175424 8.59265
thorax -8.08304 1.04006 8.27645
lowerneck -11.1026 1.39007 -0.570123
upperneck 4.7018 3.32701 -11.6572
head 3.43245 1.30325 -3.24908
rclavicle -2.22639e-014 -1.43125e-013
rhumerus -57.3846 -37.9655 -41.8165
rradius 83.3192
rwrist -60.3868
rhand -18.4393 -1.18917
rfingers 7.12502
rthumb 7.8463 -31.0236
lclavicle -2.22639e-014 -1.43125e-013
lhumerus -45.2097 7.0577 82.2247
lradius 40.3116
lwrist 10.6949
lhand -11.3951 49.945
lfingers 7.12502
lthumb 14.6398 79.4083
rfemur -20.3926 -2.68561 24.5461
rtibia 53.3488
rfoot -30.0321 -18.8307
rtoes 0.766107
lfemur -43.7726 2.88866 -23.2675
ltibia 51.5198
lfoot -11.2533 0.22095
ltoes -17.5661
142
root -0.890978 17.1543 20.2076 -176.596 5.68948 -180.242
lowerback 29.9792 -2.55523 1.52764
upperback 7.48035 0.449208 8.26676
thorax -7.67782 1.15626 7.66
lowerneck -11.3827 1.44177 -0.023131
upperneck 4.45752 3.3032 -11.7913
head 3.41367 1.29425 -3.38042
rclavicle 2.70347e-014 5.56597e-014
rhumerus -58.4621 -38.4891 -41.3187
rradius 85.2841
rwrist -59.7446
rhand -17.3896 -0.854054
rfingers 7.12502
rthumb 8.85936 -30.6481
lclavicle 2.70347e-014 5.56597e-014
lhumerus -45.2261 6.75058 81.6814
lradius 40.1018
lwrist 10.628
lhand -10.9189 49.8139
lfingers 7.12502
lthumb 15.0986 79.2432
rfemur -19.3657 -2.26651 24.5638
rtibia 52.641
rfoot -29.8984 -19.0209
rtoes -0.900393
lfemur -43.8508 2.58429 -22.6778
ltibia 48.6057
lfoot -10.3437 1.00161
ltoes -16.392
143
root -0.897104 17.159 19.9879 -176.579 6.14677 -179.912
lowerback 30.2431 -2.47812 1.17623
upperback 7.22961 0.497248 8.66453
thorax -8.09152 1.18259 8.27941
lowerneck -10.6635 1.63564 -0.736962
upperneck 4.37517 3.6438 -11.7532
head 3.27977 1.48588 -3.23222
rclavicle 5.40694e-014 1.09729e-013
rhumerus -58.964 -37.4833 -40.4036
rradius 87.2609
rwrist -58.8413
rhand -16.8927 -0.819966
rfingers 7.12502
rthumb 9.33884 -30.5931
lclavicle 5.40694e-014 1.09729e-013
lhumerus -46.4914 7.93656 81.5194
lradius 39.9111
lwrist 10.1294
lhand -10.4538 49.5531
lfingers 7.12502
lthumb 15.5466 78.9482
rfemur -18.167 -2.07478 24.8247
rtibia 51.8233
rfoot -29.9632 -19.1958
rtoes -1.92662
lfemur -43.8865 1.93922 -21.7412
ltibia 45.6668
lfoot -8.79712 1.96359
ltoes -14.9158
144
root -0.90487 17.1565 19.7613 -176.634 6.57104 -179.493
lowerback 29.8899 -2.5561 1.68288
upperback 7.45583 0.493375 8.40754
thorax -7.67734 1.17209 7.71243
lowerneck -10.6641 1.70904 -0.271594
upperneck 4.35336 3.64509 -11.7174
head 3.27903 1.48577 -3.29779
rclavicle 1.27222e-014 1.79701e-013
rhumerus -59.7389 -38.1463 -40.0099
rradius 89.1947
rwrist -57.4076
rhand -16.2852 -0.571755
rfingers 7.12502
rthumb 9.92506 -30.3178
lclavicle 1.27222e-014 1.79701e-013
lhumerus -46.7351 8.03368 80.7923
lradius 39.7487
lwrist 9.97851
lhand -9.98915 49.9895
lfingers 7.12502
lthumb 15.9941 79.3493
rfemur -16.6854 -1.98662 25.1854
rtibia 50.9145
rfoot -30.1008 -19.5998
rtoes -2.19433
lfemur -43.7502 1.17511 -20.5839
ltibia 42.7063
lfoot -6.79973 2.93575
ltoes -14.937
145
root -0.914217 17.147 19.5339 -176.746 7.18881 -179.242
lowerback 29.6737 -2.51704 1.74301
upperback 7.76666 0.518293 8.01354
thorax -7.65512 1.22321 7.78963
lowerneck -10.2898 1.85035 -0.160946
upperneck 4.25156 3.77132 -11.643
head 3.19367 1.5623 -3.28766
rclavicle 0 -1.7334e-013
rhumerus -60.1974 -38.6902 -39.3865
rradius 90.8473
rwrist -55.9433
rhand -15.3537 -0.503427
rfingers 7.12502
rthumb 10.8236 -30.2045
lclavicle 0 -1.7334e-013
lhumerus -47.3344 8.6075 80.1192
lradius 39.5665
lwrist 9.62368
lhand -9.44703 50.1937
lfingers 7.12502
lthumb 16.5161 79.5108
rfemur -15.1452 -1.70763 25.2928
rtibia 49.9669
rfoot -30.0987 -19.8929
rtoes -0.683963
lfemur -43.4716 0.269604 -19.423
ltibia 39.678
lfoot -5.02648 4.17017
ltoes -14.6568
146
root -0.925628 17.1481 19.3085 -176.808 7.75136 -179.081
lowerback 29.563 -2.44915 1.71119
upperback 7.86566 0.55735 7.90479
thorax -7.49307 1.2331 7.66011
lowerneck -10.1954 2.05334 -0.00166751
upperneck 4.25573 3.99995 -11.5993
head 3.1944 1.67572 -3.28704
rclavicle 1.11319e-014 1.27222e-014
rhumerus -60.3949 -39.3285 -38.6628
rradius 92.3071
rwrist -54.472
rhand -14.164 -0.323862
rfingers 7.12502
rthumb 11.9709 -29.9616
lclavicle 1.11319e-014 1.27222e-014
lhumerus -47.8281 9.2422 79.5105
lradius 39.3694
lwrist 9.3851
lhand -9.35138 50.0273
lfingers 7.12502
lthumb 16.6082 79.3367
rfemur -13.7013 -1.59117 25.2798
rtibia 49.0103
rfoot -30.2229 -19.8432
rtoes 0.191964
lfemur -43.1261 -0.897631 -18.2032
ltibia 36.5865
lfoot -3.81707 5.58528
ltoes -13.5491
